<?xml version="1.0" encoding="utf-8"?>
<!-- Generator: Adobe Illustrator 24.1.2, SVG Export Plug-In . SVG Version: 6.00 Build 0)  -->
<svg version="1.1" id="Layer_1" xmlns="http://www.w3.org/2000/svg" xmlns:xlink="http://www.w3.org/1999/xlink" x="0px" y="0px"
	 viewBox="0 0 640 480" style="enable-background:new 0 0 640 480;" xml:space="preserve">
<style type="text/css">
	.st0{fill:#FF0000;}
	.st1{fill:#C9C9C9;}
	.st2{fill:#1010FF;}
</style>
<g>
	<g>
		<circle class="st0" cx="296.5" cy="213.5" r="77"/>
		<g>
			<path d="M296.5,137c42.2,0,76.5,34.3,76.5,76.5S338.7,290,296.5,290S220,255.7,220,213.5S254.3,137,296.5,137 M296.5,136
				c-42.8,0-77.5,34.7-77.5,77.5s34.7,77.5,77.5,77.5s77.5-34.7,77.5-77.5S339.3,136,296.5,136L296.5,136z"/>
		</g>
	</g>
	<g>
		<circle class="st1" cx="297" cy="213" r="66.5"/>
		<g>
			<path d="M297,147c36.4,0,66,29.6,66,66s-29.6,66-66,66s-66-29.6-66-66S260.6,147,297,147 M297,146c-37,0-67,30-67,67s30,67,67,67
				s67-30,67-67S334,146,297,146L297,146z"/>
		</g>
	</g>
	<g>
		<circle class="st0" cx="297" cy="212" r="51.5"/>
		<path d="M297,161c28.1,0,51,22.9,51,51s-22.9,51-51,51s-51-22.9-51-51S268.9,161,297,161 M297,160c-28.7,0-52,23.3-52,52
			s23.3,52,52,52s52-23.3,52-52S325.7,160,297,160L297,160z"/>
	</g>
	<g>
		<circle class="st2" cx="297" cy="212" r="38.5"/>
		<path d="M297,174c21,0,38,17,38,38s-17,38-38,38s-38-17-38-38S276,174,297,174 M297,173c-21.5,0-39,17.5-39,39s17.5,39,39,39
			s39-17.5,39-39S318.5,173,297,173L297,173z"/>
	</g>
	<g>
		<polygon class="st1" points="281.2,218.1 266,203.2 287,200.2 296.4,181.1 305.9,200.2 326.9,203.2 311.7,218.1 315.3,239.1 
			296.4,229.2 277.6,239.1 		"/>
		<path d="M296.4,182.2l8.9,17.9l0.2,0.5l0.5,0.1l19.8,2.9l-14.3,14l-0.4,0.4l0.1,0.5l3.4,19.7l-17.7-9.3l-0.5-0.2l-0.5,0.2
			l-17.7,9.3l3.4-19.7l0.1-0.5l-0.4-0.4l-14.3-14l19.8-2.9l0.5-0.1l0.2-0.5L296.4,182.2 M296.4,179.9l-9.8,19.8l-21.8,3.2l15.8,15.4
			l-3.7,21.7l19.5-10.3l19.5,10.3l-3.7-21.7l15.8-15.4l-21.8-3.2L296.4,179.9L296.4,179.9z"/>
	</g>
</g>
</svg>
